<svg width="490" height="233" viewBox="0 0 490 233" fill="none" xmlns="http://www.w3.org/2000/svg">
<path d="M60.8976 172.217V60.7826C60.8976 60.7826 83.9691 60.7826 130.112 60.7826C141.296 60.7826 150.881 66.2699 158.869 77.2446C166.951 88.1254 170.993 101.211 170.993 116.5C170.993 131.883 166.951 145.015 158.869 155.896C150.881 166.777 141.296 172.217 130.112 172.217H60.8976ZM71.0472 162.087H130.112C138.476 162.087 145.619 157.631 151.539 148.72C157.554 139.809 160.561 129.069 160.561 116.5C160.561 103.837 157.554 93.0968 151.539 84.2796C145.619 75.3686 138.476 70.913 130.112 70.913H71.0472V162.087ZM50.748 182.348H130.112C144.115 182.348 156.144 175.923 166.2 163.072C176.349 150.127 181.424 134.603 181.424 116.5C181.424 104.587 179.075 93.5658 174.376 83.4354C169.771 73.3049 163.521 65.3319 155.627 59.5163C147.827 53.6069 139.322 50.6522 130.112 50.6522H50.748V182.348ZM40.5984 192.478V40.5217H130.112C141.108 40.5217 151.351 43.8985 160.843 50.6522C170.335 57.4058 177.853 66.6451 183.398 78.3702C189.036 90.0014 191.856 102.711 191.856 116.5C191.856 130.195 189.036 142.905 183.398 154.63C177.853 166.355 170.335 175.594 160.843 182.348C151.351 189.101 141.108 192.478 130.112 192.478H40.5984ZM30.4488 202.609H130.112C142.987 202.609 154.922 198.763 165.918 191.071C177.007 183.38 185.841 172.921 192.419 159.695C198.998 146.469 202.287 132.071 202.287 116.5C202.287 101.023 198.998 86.6715 192.419 73.4457C185.841 60.126 177.007 49.6204 165.918 41.9287C154.828 34.2371 142.893 30.3913 130.112 30.3913H30.4488V202.609ZM20.2992 212.739V20.2609H130.112C144.773 20.2609 158.446 24.5757 171.133 33.2053C183.82 41.7411 193.923 53.4193 201.441 68.2397C208.96 83.0602 212.719 99.1469 212.719 116.5C212.719 133.853 208.96 149.94 201.441 164.76C193.923 179.581 183.82 191.306 171.133 199.935C158.446 208.471 144.773 212.739 130.112 212.739H20.2992ZM10.1496 222.87H130.112C142.423 222.87 154.311 220.056 165.777 214.428C177.242 208.8 187.157 201.249 195.521 191.775C203.885 182.301 210.557 170.998 215.538 157.866C220.613 144.64 223.15 130.851 223.15 116.5C223.15 102.149 220.613 88.4068 215.538 75.2748C210.557 62.1427 203.885 50.8398 195.521 41.3659C187.157 31.7983 177.242 24.2005 165.777 18.5725C154.311 12.9444 142.423 10.1304 130.112 10.1304H10.1496V222.87ZM130.112 233H0V0H130.112C148.438 0 165.542 5.20592 181.424 15.6178C197.306 26.0296 209.946 40.1934 219.344 58.1093C228.836 76.0252 233.582 95.4887 233.582 116.5C233.582 132.258 230.762 147.36 225.124 161.806C219.579 176.157 212.155 188.539 202.851 198.95C193.547 209.362 182.505 217.664 169.724 223.854C157.037 229.951 143.833 233 130.112 233Z" fill="url(#paint0_linear_7_2)"/>
<path d="M255.572 101.304V91.1739H367.218V101.304H255.572ZM255.572 121.565V111.435H367.218V121.565H255.572ZM255.572 141.826V131.696H367.218V141.826H255.572Z" fill="url(#paint1_linear_7_2)"/>
<path d="M387.658 50.6522V40.5217H490V233H479.85V50.6522H469.701V233H459.551V50.6522H449.402V233H439.252V50.6522H429.102V233H418.953V50.6522H387.658ZM387.658 30.3913V20.2609H490V30.3913H387.658ZM387.658 10.1304V0H490V10.1304H387.658Z" fill="url(#paint2_linear_7_2)"/>
<defs>
<linearGradient id="paint0_linear_7_2" x1="114" y1="-9" x2="114" y2="241" gradientUnits="userSpaceOnUse">
<stop stop-color="#0005EB"/>
<stop offset="1" stop-color="#00BCA7"/>
</linearGradient>
<linearGradient id="paint1_linear_7_2" x1="114" y1="-9" x2="114" y2="241" gradientUnits="userSpaceOnUse">
<stop stop-color="#0005EB"/>
<stop offset="1" stop-color="#00BCA7"/>
</linearGradient>
<linearGradient id="paint2_linear_7_2" x1="114" y1="-9" x2="114" y2="241" gradientUnits="userSpaceOnUse">
<stop stop-color="#0005EB"/>
<stop offset="1" stop-color="#00BCA7"/>
</linearGradient>
</defs>
</svg>
